<svg width="81" height="81" viewBox="0 0 81 81" fill="none" xmlns="http://www.w3.org/2000/svg">
<path d="M81 40.5C81 62.8675 62.8675 81 40.5 81C18.1325 81 0 62.8675 0 40.5C0 18.1325 18.1325 0 40.5 0C62.8675 0 81 18.1325 81 40.5Z" fill="black"/>
<path d="M56 47.6771V53.3657C56.0002 53.773 55.8403 54.1652 55.5527 54.4632C55.265 54.7612 54.8709 54.9428 54.45 54.9713C53.7217 55.0195 53.1267 55.0453 52.6667 55.0453C37.9383 55.0453 26 43.5217 26 29.3051C26 28.861 26.025 28.2867 26.0767 27.5837C26.1062 27.1774 26.2943 26.797 26.603 26.5193C26.9117 26.2417 27.318 26.0873 27.74 26.0875H33.6333C33.8401 26.0873 34.0395 26.1613 34.1929 26.2951C34.3463 26.4289 34.4427 26.6129 34.4633 26.8115C34.5017 27.1815 34.5367 27.4759 34.57 27.6995C34.9012 29.9307 35.58 32.1008 36.5833 34.1362C36.7417 34.4579 36.6383 34.8424 36.3383 35.0483L32.7417 37.5291C34.9408 42.4751 39.0242 46.4167 44.1483 48.5394L46.715 45.0742C46.8199 44.9326 46.973 44.831 47.1475 44.7872C47.322 44.7434 47.5069 44.7601 47.67 44.8345C49.7783 45.8012 52.0259 46.4548 54.3367 46.773C54.5683 46.8052 54.8733 46.839 55.2533 46.876C55.4587 46.8963 55.649 46.9895 55.7873 47.1375C55.9255 47.2855 56.0003 47.4778 56 47.6771Z" fill="white"/>
</svg>
